<?xml version="1.0" encoding="UTF-8"?>
<svg id="Layer_2" data-name="Layer 2" xmlns="http://www.w3.org/2000/svg" xmlns:xlink="http://www.w3.org/1999/xlink" viewBox="0 0 2560 1280">
  <defs>
    <clipPath id="clippath">
      <polygon points="2560 1280 0 1280 0 0 1280 0 2560 0 2560 1280" style="fill: none; stroke-width: 0px;"/>
    </clipPath>
  </defs>
  <g id="Layer_5" data-name="Layer 5">
    <polygon points="2560 1280 0 1280 0 0 1280 0 2560 0 2560 1280" style="fill: #1b1924; stroke-width: 0px;"/>
    <path d="M2558.95,1280V0h-866.23c-56.48,87-113.08,205.64-156,324.99-119.73,333.01-134.96,679.65-77.14,955.01h1099.36Z" style="fill: #ff5547; stroke-width: 0px;"/>
    <g style="clip-path: url(#clippath);">
      <g>
        <path d="M2823.01,30.99c-71.6-96.12-199.98-114.83-383.83-69.02-183.85,45.8-305.55,200.71-305.55,200.71l-15.89,16.04c-80.64-17.42-139.06-12.54-189.66,5.16-348.64-185.74-532.98-74.51-508.46,115.79,21.43,166.39,100.07,313.54,119.49,347.89-17.54,36.31-9.51,64.64-9.51,64.64-169.66,20.64-299.97-146.43-299.97-146.43,38.52,418.02,357.83,413.5,357.83,413.5,0,0-6.45,96.12,89.02,147.08-3.57,46.6,56.12,148.37,122.57,156.11,11.61,49.67,98.54,167.56,293.7,212.23,229.82,52.6,487.23,3.31,417.37-293.51-11.58-49.18-34.26-105.41-76.01-159.78.52-.85.92-1.78,1.18-2.79,10.97-41.93,79.99-88.38,187.08-120.63,107.08-32.25,204.49-138.69,262.33-351.89,57.84-213.2,11.05-437.44-61.71-535.1Z" style="fill: #1b1924; stroke-width: 0px;"/>
        <path d="M1731.52,515.45s47.09,71.6,127.08,59.99c0,0-18.71-12.9-10.97-43.87,0,0,19.35,23.87,34.83,25.8,15.48,1.94,38.71,17.42,38.71,17.42,0,0-32.9,41.93-70.96,45.8-38.06,3.87-83.84-28.32-90.63-40.61-6.78-12.29-21.62-31-28.07-64.54Z" style="fill: #fff; stroke-width: 0px;"/>
        <path d="M2755.27,52.28c-69.02-65.8-210.94-74.18-366.41-3.87-155.47,70.31-263.2,217.39-263.2,217.39-197.4-87.73-305.13,45.8-305.13,45.8,0,0-153.43,50.96-126.07,157.4,0,0-20.18,13.75-40.81,38.69-25.38,30.68-51.45,78.29-41.49,138.07,0,0-72.25,85.8,1.29,168.37,0,0-41.28,60.64,37.74,141.92,0,0,.96,102.57,73.21,148.37,0,0,13.55,74.18,79.35,116.12,0,0,107.98,132.46,258.03,201.91,147.72,68.38,480.59,47.09,376.09-247.71,0,0-49.67,152.53-217.39,91.43-167.72-61.11-214.81-290.76-219.97-310.11,0,0,226.27-34.81,196.13-333.86l107.7-11.91c-106.44,289.64,92.25,383.83,92.25,383.83,0,0,16.77-36.12,52.9-60.64,36.12-24.51,89.02-21.29,210.94-90.31,121.92-69.02,176.75-309.64,185.78-412.86,9.03-103.21-21.93-312.22-90.96-378.02ZM2192.42,607.55h0s0,0,0,0h0Z" style="fill: #5945d8; stroke-width: 0px;"/>
        <path d="M2009.58,344.41c51.14-28.46,62.5-97.76,62.51-97.86-10.55-2.87-20.79-5.09-30.71-6.75,8.72,68.97-31.8,104.61-31.8,104.61Z" style="fill: #4026ac; stroke-width: 0px;"/>
        <path d="M1731.52,515.45s44.32,75.48,124.31,63.86c0,0-15.94-16.77-8.2-47.74,0,0,19.35,23.87,34.83,25.8,15.48,1.94,38.71,17.42,38.71,17.42,0,0-32.9,41.93-70.96,45.8-38.06,3.87-83.84-28.32-90.63-40.61-6.78-12.29-21.62-31-28.07-64.54Z" style="fill: #4026ac; stroke-width: 0px;"/>
        <path d="M1892.94,1246.51c-27.36-31.1-1.01-41.3-1.01-41.3l-21.9,3.06-9.27,4.07c-19.89-22.56-39.11-47.18-57.43-73.92-37.52-58.75,26-74.05,26-74.05-14.25-3.91-61.35,12.44-61.35,12.44l-2.16,1.48c-11.2-19.74-21.93-40.42-32.11-62.09-30.51-71.42,52.65-85.81,52.65-85.81h-57.14l-27.53,9.6c-8.85-23.6-16.45-46.46-22.91-68.59-16.33-63.13,23.46-63.5,23.46-63.5l-14.12-2.16-24.67,4.65c-7.96-38.03-12.35-73.68-13.68-107.1,0-2.35-.09-4.9-.26-7.69-.09-3.45-.15-6.87-.17-10.26,1.29-40.56,27.3-44.51,27.3-44.51l-25.59-1.86c2.74-33.08,8.64-63.63,17.02-91.82,29.72-83.95,111.72-86.01,111.72-86.01l-39.65-.12-41.38,10.82c2.38-4.51,4.83-8.94,7.34-13.3l13.34-2.12s-2.95-18.84,42.22-71.28c56.12-65.15,135.4-69.2,135.4-69.2,0,0-35.41-12.08-36.92-12.91-.27-.15-2.05.16-4.79.77.41-.27.83-.54,1.24-.81h28.14s85.03-68.74,171.28-60.38c-19.92-4.34-38.64-6.36-56.14-6.62,0,0,.02,0,.02,0-.13,0-.26,0-.4,0-1.52-.02-3.03-.03-4.53-.02-.24,0-.48,0-.71,0-7.12.05-14.02.39-20.72.98-.07,0-.13.01-.2.02-1.57.14-3.13.3-4.68.47-.21.02-.42.05-.62.07-1.41.16-2.82.33-4.21.51-.26.03-.51.07-.77.1-1.36.18-2.7.37-4.04.57-.25.04-.5.07-.75.11-1.37.21-2.72.43-4.07.66-.2.03-.4.07-.6.1-1.45.25-2.89.51-4.31.78-.08.02-.16.03-.24.05-7.73,1.49-15.13,3.3-22.19,5.38-.09.03-.17.05-.26.08-1.3.38-2.59.78-3.87,1.18-.14.04-.28.09-.42.13-1.24.39-2.46.79-3.67,1.19-.14.05-.29.1-.43.14-1.23.41-2.46.84-3.67,1.26-.1.03-.2.07-.3.1-7.97,2.83-15.45,5.97-22.44,9.28-.04.02-.07.03-.11.05-1.11.53-2.2,1.06-3.29,1.59-.09.04-.18.09-.27.13-1.04.52-2.07,1.03-3.08,1.56-.1.05-.19.1-.29.15-1.03.53-2.04,1.06-3.04,1.59-.07.04-.13.07-.2.11-6.47,3.46-12.44,7.03-17.9,10.59-.05.03-.1.07-.16.1-.84.55-1.66,1.09-2.48,1.64-.1.06-.19.13-.29.19-.77.52-1.53,1.04-2.29,1.56-.11.07-.21.15-.32.22-.75.52-1.48,1.03-2.21,1.55-.09.07-.19.13-.28.2-.76.54-1.51,1.08-2.24,1.61-.05.03-.09.07-.14.1-3.18,2.32-6.13,4.6-8.85,6.8-.05.04-.09.07-.13.11-.61.49-1.21.98-1.8,1.47-.11.09-.23.19-.34.28-.51.43-1.02.85-1.51,1.26-.15.12-.29.24-.43.37-.46.39-.91.77-1.35,1.15-.15.13-.31.27-.46.4-.42.37-.84.73-1.25,1.09-.15.13-.3.26-.45.39-.41.36-.8.72-1.2,1.07-.14.12-.27.25-.41.37-.41.37-.81.73-1.2,1.09-.1.1-.21.19-.31.29-.48.44-.94.87-1.39,1.29-.01.01-.03.03-.04.04-.01.01-.02.02-.03.03h0c-7.65,7.21-11.54,12.03-11.54,12.03,0,0-4.16,1.38-10.99,4.17-.82.22-1.27.35-1.27.35l-.56.4c-36.29,15.09-135.72,65.08-113.25,152.48,0,0-3.02,2.06-7.91,6.02l-2.44.64-1.04,2.25c-7.74,6.55-18.51,16.6-29.42,29.78-25.38,30.68-51.45,78.29-41.49,138.07,0,0-72.25,85.8,1.29,168.37,0,0-41.28,60.64,37.74,141.92,0,0,.96,102.57,73.21,148.37,0,0,13.55,74.18,79.35,116.12,0,0,107.98,132.46,258.03,201.91" style="fill: #806dfe; stroke-width: 0px;"/>
        <path d="M1689.63,954.75h-16.14l-19.6,14.92-1.28,4.06c1.94,15.86,6.56,40.38,17.58,65.15-.55-4.59-13.04-58.98,19.44-84.13Z" style="fill: #fff; stroke-width: 0px;"/>
        <path d="M1631.58,823.25h-22.69c-5.79,14.29-12.86,44.42,6.39,83.55,0,0-15.72-46.7,16.3-83.55Z" style="fill: #fff; stroke-width: 0px;"/>
        <path d="M1610.7,633.5c-.65-20,32.08-134.14,99.99-159.34l-26.86,2.14-.74,1.6c-7.74,6.55-22.77,17.91-33.68,31.09-19.7,23.81-44.51,57.41-38.71,124.5Z" style="fill: #fff; stroke-width: 0px;"/>
        <path d="M1594.31,787.07c-.85-3.86-19.85-93.22,35.08-140.93l-4.49-6.19-13.31,1.92c.18,1.29.38,2.58.59,3.88,0,0-57.33,68.08-17.87,141.31Z" style="fill: #fff; stroke-width: 0px;"/>
        <path d="M1954.19,239.44c-.2.03-.4.07-.6.1-1.45.25-2.89.51-4.31.78-.08.02-.16.03-.24.05-7.73,1.49-15.13,3.3-22.19,5.38-.09.03-.17.05-.26.08-1.3.38-2.59.78-3.87,1.18-.14.04-.28.09-.42.13-1.24.39-2.46.79-3.67,1.19-.14.05-.29.1-.43.14-1.23.41-2.46.84-3.67,1.26-.1.03-.2.07-.3.1-7.97,2.83-15.45,5.97-22.44,9.28-.04.02-.07.03-.11.05-1.11.53-2.2,1.06-3.29,1.59-.09.04-.18.09-.27.13-1.04.52-2.07,1.03-3.08,1.56-.1.05-.19.1-.29.15-1.03.53-2.04,1.06-3.04,1.59-.07.04-.13.07-.2.11-6.47,3.46-12.44,7.03-17.9,10.59-.05.03-.1.07-.16.1-.84.55-1.66,1.09-2.48,1.64-.1.06-.19.13-.29.19-.77.52-1.53,1.04-2.29,1.56-.11.07-.21.15-.32.22-.75.52-1.48,1.03-2.21,1.55-.09.07-.19.13-.28.2-.76.54-1.51,1.08-2.24,1.61-.05.03-.09.07-.14.1-3.18,2.32-6.13,4.6-8.85,6.8-.05.04-.09.07-.13.11-.61.49-1.21.98-1.8,1.47-.11.09-.23.19-.34.28-.51.43-1.02.85-1.51,1.26-.15.12-.29.24-.43.37-.46.39-.91.77-1.35,1.15-.15.13-.31.27-.46.4-.42.37-.84.73-1.25,1.09-.15.13-.3.26-.45.39-.41.36-.8.72-1.2,1.07-.14.12-.27.25-.41.37-.41.37-.81.73-1.2,1.09-.1.1-.21.19-.31.29h23.37s36.28-43.21,97.27-58.77Z" style="fill: #fff; stroke-width: 0px;"/>
        <path d="M1806.3,317.12c-34.81,14.69-120.92,58.87-114.77,134.5,0,0,21.83-87.79,114.77-134.5Z" style="fill: #fff; stroke-width: 0px;"/>
        <path d="M2277.95,1336.68c29.84-.88,131.06-11.07,175.29-106.62-3.26-17.27-8.28-35.69-15.24-55.34,0,0-49.67,152.53-217.39,91.43-167.72-61.11-214.81-290.76-219.97-310.11,0,0,13.02-2.01,32.39-9.18l-7.99-4.37-205.78-219.97-87.62-207.07s-125.15,347.7,189.66,461.88c0,0,119.94,364.06,356.67,359.35Z" style="fill: #4026ac; stroke-width: 0px;"/>
        <path d="M1986.33,579.31s34.83,1.01,49.03-19.81c14.19-20.83,0-51.79-19.35-67.27-19.35-15.48,2.58-37.42,40-43.22l-48.38,9.03-37.57,28.3-3.71,34.27-19.12,22.39-13.51,9.58,5.83,19.81,46.79,6.92Z" style="fill: #4026ac; stroke-width: 0px;"/>
        <path d="M1999.88,954.75l1.05,1.22c9.59-1.64,188.96-35.28,198.13-262.52-.19-1.01-.38-2.04-.58-3.11-18.79-103.78-110.87-139.41-110.87-139.41,0,0,92.7,69.67,62.93,172.63-22.11-10.15-46.5-17.31-70.84-16.82,0,0,87.46,80.06,1.89,171.46l-81.7,76.56Z" style="fill: #4026ac; stroke-width: 0px;"/>
        <path d="M2362.41,445.78s-129.66,10.32-189.01-69.67c0,0,141.27-259.97,469.62-272.23,0,0-263.2,65.8-347.7,291.58,0,0,21.29,27.74,67.09,50.32Z" style="fill: #4026ac; stroke-width: 0px;"/>
        <path d="M2074.06,1050.87s-3.87,31.61,49.67,57.41c0,0,7.74,43.87,29.67,52.9,0,0,68.38-41.29,110.31,73.54,0,0,109.66,19.35,126.44-94.83,0,0-77.6-183.85-275.45-123.86-16.19,4.91-29.67,18.06-40.64,34.83Z" style="fill: #5945d8; stroke-width: 0px;"/>
        <path d="M2226.76,1136.02l-5.71,31.91c14.89,11.63,29.99,32.07,42.67,66.79,0,0,13.97,2.46,32.7.44-19.71-77.55-69.66-99.14-69.66-99.14Z" style="fill: #806dfe; stroke-width: 0px;"/>
        <path d="M2346,1218c20.4-13.69,38.17-37.42,44.15-78.11,0,0-81.47-189.01-275.45-123.86-16.03,5.39-29.67,18.06-40.64,34.83,0,0,233.33,4.52,271.94,167.13Z" style="fill: #4026ac; stroke-width: 0px;"/>
        <g>
          <path d="M2169.53,453.52c-23.22,44.51-14.74,97.41-14.74,97.41-25.71-9.68-67.18,0-67.18,0,36.84,2.75,64.58,11.42,85.06,21.47-14.03-54.74-3.13-118.87-3.13-118.87Z" style="fill: #4026ac; stroke-width: 0px;"/>
          <path d="M2087.61,550.93l7.29,3.31c-4.58-2.26-7.29-3.31-7.29-3.31Z" style="fill: #4026ac; stroke-width: 0px;"/>
        </g>
        <path d="M2135.34,747.04s41.19,54.42-5.21,134.94c-46.4,80.52,59.4-62.69,59.4-62.69,0,0-.65-39.35-54.19-72.25Z" style="fill: #1b1924; stroke-width: 0px;"/>
        <path d="M1900.53,1202.47s-87.2,23.61-50.69,67.61c36.5,43.99-5.43,55.6-5.43,55.6l-58.06-99.34s10.32-20,114.18-23.87Z" style="fill: #1b1924; stroke-width: 0px;"/>
        <path d="M1738.81,1145.47s-42.77-50.73,98.51-82.99c0,0-96.76-9.68-141.92,35.48-45.16,45.16,43.41,47.51,43.41,47.51Z" style="fill: #1b1924; stroke-width: 0px;"/>
        <path d="M1661.68,1016.22s-14.92-40.67,27.95-61.46c41.24-20,104.46-25.16,104.46-25.16,0,0-99.71-24.26-147.72,21.29-57.58,54.62,15.32,65.33,15.32,65.33Z" style="fill: #1b1924; stroke-width: 0px;"/>
        <path d="M1603.79,870.25s-11.61-40,50.32-54.83c43.07-10.32,55.05-7.01,55.05-7.01,0,0-67.95-25.24-110.53,6.37-42.58,31.61,5.16,55.48,5.16,55.48Z" style="fill: #1b1924; stroke-width: 0px;"/>
        <path d="M1594.18,675.13s10.9-22.93,42.51-31.31c25.22-6.69,39.93-3,39.93-3,0,0-34.77-24.74-78.64-2.16-43.87,22.58-3.81,36.47-3.81,36.47Z" style="fill: #1b1924; stroke-width: 0px;"/>
        <path d="M1870.42,215.2c-6.12-3.94-77.03-48.43-188.57-69.39-116.76-21.93-180.91,48.95-195.46,106.44-25.8,101.92,81.93,365.76,81.93,365.76,0,0,20-48.38,41.93-74.83,21.93-26.45,54.19-111.6,70.96-149.66,16.77-38.06,91.6-72.89,91.6-72.89l19.44-20.85c18.13-37.84,49.34-65.55,78.17-84.58Z" style="fill: #4026ac; stroke-width: 0px;"/>
        <path d="M1517.35,333.54s38.06-72.89,178.69-23.22c0,0-87.09,49.67-75.48,153.53,0,0-38.71,34.19-47.74,56.12,0,0,9.04-45.8,23.87-59.35,0,0-22.58-7.1-53.54,6.45l-16.95-60.59s47.27-53.59,76.3-63.91c0,0-34.19-19.35-85.15-9.03Z" style="fill: #5945d8; stroke-width: 0px;"/>
        <path d="M1559.28,349.66s-45.8,29.03-61.93,58.06c-16.13,29.03-14.96-38.69-14.96-38.69,0,0,8.51-14.21,76.89-19.37Z" style="fill: #1b1924; stroke-width: 0px;"/>
        <path d="M1565.09,482.55s-18.06,20-25.16,69.67c-7.68,53.75-14.19-38.71-14.19-38.71,0,0,2.43-15.98,39.35-30.96Z" style="fill: #1b1924; stroke-width: 0px;"/>
        <path d="M1870.42,215.2c-6.12-3.94-77.03-48.43-188.57-69.39-116.76-21.93-180.91,48.95-195.46,106.44,0,0,44.51-61.28,180.62-32.25,68.93,14.7,115.19,33.87,144.07,49.21,17.31-22.7,38.92-40.53,59.34-54.01Z" style="fill: #806dfe; stroke-width: 0px;"/>
        <path d="M1783.38,173.87c-28.13-10.4-62.31-20.68-101.54-28.05-82.1-15.42-138.19,15.05-169.31,54.48.02-.02,64.81-77.71,270.85-26.43Z" style="fill: #fff; stroke-width: 0px;"/>
        <path d="M1720.55,260c36.18,19.9,58.32,32.22,71.69,39.79l32.96-35.34h0s-7.71,8.26-7.71,8.26c-28.25-15.84-76.2-36.87-150.49-52.71-68.14-14.53-113.32-6.43-141.45,5.28.48-.18,79.24-28.95,194.99,34.71Z" style="fill: #1b1924; stroke-width: 0px;"/>
        <path d="M2170.18,941.85s23.22-9.03,57.41-2.58c34.19,6.45,41.93,11.61,41.93,11.61,0,0-21.93-29.03-31.61-57.41-9.68-28.38-10.97-47.09-10.97-47.09,0,0-5.16,61.28-56.77,95.47Z" style="fill: #ff5547; stroke-width: 0px;"/>
        <path d="M2847.51,421.53c.03-.55.07-1.1.1-1.65.05-.92.11-1.84.16-2.77.03-.58.06-1.16.09-1.74.05-.93.09-1.88.13-2.82.02-.58.05-1.15.07-1.73.04-1.01.07-2.04.1-3.06.02-.52.03-1.04.05-1.56.04-1.26.06-2.53.09-3.8,0-.31.01-.61.02-.91.03-1.61.05-3.23.07-4.86,0-.31,0-.63,0-.94.01-1.31.02-2.64.02-3.97,0-.53,0-1.06,0-1.6,0-1.13,0-2.27-.01-3.42,0-.59-.01-1.19-.02-1.78-.01-1.11-.03-2.23-.04-3.36,0-.6-.02-1.2-.03-1.8-.02-1.17-.05-2.35-.08-3.53-.01-.56-.03-1.11-.04-1.67-.04-1.34-.08-2.68-.12-4.04-.01-.4-.02-.8-.04-1.21-.12-3.57-.27-7.18-.45-10.83-.02-.43-.05-.87-.07-1.3-.07-1.38-.14-2.76-.22-4.15-.03-.58-.07-1.15-.1-1.73-.07-1.27-.15-2.54-.23-3.82-.02-.29-.03-.58-.05-.88,0,0,0,0,0,0-4.96-77.12-22.15-169.61-51.24-234.55l-118.44-28.79s23.22,40.11,36.12,76.34c0,0-194.82,49.81-269,232.24,0,0,127.73-156.55,311.58-128.74,0,0,12.28,51.17,19.06,89.85-69.46,8.76-160.66,28.32-204.84,71.88,0,0,90.31,6.47,216.75,86.69,0,0-1.94,97.68-30.96,144.26,0,0-52.9-59.52-165.14-67.28,0,0,51.61,119.68,63.22,217.36,0,0-44.18,49.36-139.98,53.69-251.13,11.35-109.02-240.01-163.85-315.05,0,0-121.28,0-179.33-89.92,0,0,8.35,82.23,49.67,103.51,47.74,24.58,30.83,50.2,26.45,67.28l58.06-14.88c-106.44,290.47,92.25,384.92,92.25,384.92,0,0,16.77-36.23,52.9-60.81,36.12-24.58,89.02-21.35,210.94-90.57,121.92-69.22,176.75-310.52,185.78-414.03.12-1.37.23-2.77.34-4.17.03-.45.06-.91.1-1.37.07-.97.14-1.94.2-2.92Z" style="fill: #4026ac; stroke-width: 0px;"/>
        <path d="M2173.4,376.11c38.07,51.32,105.09,65.46,148.24,69.01h0s-75.34-18.05-101.79-63.21c0,0,94.13-181.16,243.68-243.35-201.05,73.66-290.12,237.55-290.12,237.55Z" style="fill: #1b1924; stroke-width: 0px;"/>
        <path d="M2169.53,453.52s-10.9,64.14,3.13,118.87c-20.47-10.05-48.21-18.72-85.06-21.47,0,0,92.08,35.63,110.87,139.41,14.16,78.2,20.95-5.07,23.43-50.88,40.21,13.71,81.8-30.48,81.8-30.48,0,0-124.5-54.83-134.18-155.47Z" style="fill: #1b1924; stroke-width: 0px;"/>
        <path d="M2846.87,429.01c9.03-103.21-21.93-312.22-90.96-378.02-69.02-65.8-210.94-74.18-366.41-3.87-155.47,70.31-263.2,217.39-263.2,217.39-7.58-3.37-15.03-6.41-22.35-9.15l-90.09,94.94s61.47,7.74,191.78-123.21c130.31-130.95,419.95-247.71,539.94-78.7,119.77,168.7,94.35,333.49,94.25,334.09,3.38-20.14,5.7-38.3,7.03-53.48Z" style="fill: #806dfe; stroke-width: 0px;"/>
        <path d="M2076,814.77c-26.45-90.31-121.37-81.93-121.37-81.93,33.45-45.16,101.38-8.82,101.38-8.82,0,0-25.16-36.98-74.18-34.4-49.03,2.58-119.99,12.26-114.83-40.64,3.19-32.73,35.04-50.39,58.85-59.11.76-.22,1.57-.5,2.43-.87,0,0,0,0,0,0,13.51-4.71,23.87-6.47,23.87-6.47l-.15-.1c17.72-3.1,34.34-3.12,34.34-3.12-50.96-4.52-45.16-30.96-45.16-30.96l-.23.07c.1-.1.2-.19.3-.29,5.57,5,12.46,7.96,19.93,7.96,18.53,0,33.54-18.2,33.54-40.64,0-12.24-4.47-23.21-11.54-30.66.4-.53.81-1.06,1.22-1.59,21.93-28.38,71.6-34.19,71.6-34.19-113.54,5.16-94.18,55.48-114.18,76.12-34.91,36.04-94.18,6.45-94.18,6.45,25.16,59.35,65.15,45.16,65.15,45.16-129.66,92.89-180.79-64.13-181.27-61.28-63.22,375.44,268.81,440.59,268.81,440.59,50.96-4.52,102.11-50.96,75.66-141.27Z" style="fill: #1b1924; stroke-width: 0px;"/>
        <path d="M2056,449.01s-8.39-25.8-43.22-32.9c-35.85-7.3-67.63,11.87-84.51,51.61,20.22-30.79,55.79-56.24,127.73-18.71Z" style="fill: #fff; stroke-width: 0px;"/>
        <path d="M1941.82,525.13c20-20.64.65-70.96,114.18-76.12-103.86-54.19-122.57,1.29-145.14,59.35-15.27,39.26-63.22,23.22-63.22,23.22,0,0,59.27,29.59,94.18-6.45Z" style="fill: #806dfe; stroke-width: 0px;"/>
        <path d="M1852.06,484.52s34.63,17.98,52.32-27.84c18.61-48.2,46.92-54.81,65.12-57.62,18.19-2.82,29.53,2.79,29.53,2.79,0,0-24.28-28.25-80.41-10.92-54.82,16.93-66.56,93.6-66.56,93.6Z" style="fill: #1b1924; stroke-width: 0px;"/>
        <g>
          <path d="M1994.19,769.37s0,0,.01,0c0,0,0,0-.01,0-4.73-1.97-9.55-3.06-14.32-3.15-176.76-38.87-238.03-199.81-238.03-199.81-7.59,256.84,206.68,332.07,247.51,344.06,2.21.81,4.44,1.42,6.67,1.82h0c5.17.94,10.35.77,15.36-.66,25.96-7.41,37.79-45.69,26.43-85.5-7.95-27.84-25.13-49.06-43.62-56.76Z" style="fill: #ad6126; stroke-width: 0px;"/>
          <path d="M1956.66,866.38c-54-4.55-88.46-21.03-109.35-36.24,57.76,52.5,121.62,74.34,142.05,80.34,2.21.81,4.44,1.42,6.67,1.82h0c5.17.94,10.35.77,15.36-.66,19-5.42,30.43-27.38,30.74-54.38-15.85,7.53-42.08,12.78-85.47,9.12Z" style="fill: #8c4716; stroke-width: 0px;"/>
          <path d="M2042.12,857.14c.1-9.85-1.28-20.37-4.31-31-7.95-27.84-25.13-49.06-43.62-56.76-4.73-1.97-9.55-3.06-14.32-3.15-176.76-38.87-238.03-199.81-238.03-199.81-.42,14.16-.16,27.77.7,40.85,12.74,34.65,39.95,89.74,92.83,128.16,59.65,43.34,84.96,52.67,94.41,54.52-15.01,2.09-29.47,3.8-42.16,4.83,0,0,63.21,62.16,154.49,62.37Z" style="fill: #e1761a; stroke-width: 0px;"/>
          <path d="M1773.21,623.34c-21.99-32.31-31.36-56.93-31.36-56.93-2.08,70.47,12.54,127.26,35.69,172.83-7.17-27.23-16.49-76.26-4.33-115.9Z" style="fill: #fff; stroke-width: 0px;"/>
        </g>
        <g>
          <path d="M1542.97,773.4c-166.79,12.08-274.56-129.14-274.56-129.14,67.18,213.94,223.99,259.33,299.77,268.56-30.5-58.58-28.23-115-25.22-139.42Z" style="fill: #ad6126; stroke-width: 0px;"/>
          <path d="M1546.64,852.46c-7.24-34.32-5.61-63.33-3.67-79.06-166.79,12.08-274.56-129.14-274.56-129.14,4.5,14.34,9.41,27.92,14.67,40.79,23.11,30.94,65.96,78.04,125.64,100.69,67.31,25.54,92.76,27.29,101.7,26.3-12.47,6.62-24.58,12.69-35.38,17.54,0,0,29.77,16.78,71.6,22.89Z" style="fill: #e1761a; stroke-width: 0px;"/>
          <path d="M1315.55,691.96c-30.43-25.81-47.14-47.7-47.14-47.7,22.41,71.35,54.79,123.95,90.8,162.72-15.67-25.17-40.72-71.58-43.66-115.03Z" style="fill: #fff; stroke-width: 0px;"/>
          <path d="M1554.83,881.89c-46.22,9.97-80.36,3.95-103.06-4.69,44.41,22.79,86.66,31.99,116.42,35.61-5.43-10.43-9.82-20.8-13.36-30.92Z" style="fill: #8c4716; stroke-width: 0px;"/>
        </g>
        <g>
          <path d="M2056,724.02s-7.93-4.24-19.69-8.02l19.69,8.02Z" style="fill: #806dfe; stroke-width: 0px;"/>
          <path d="M1963.22,652.83c-44.03-2.36-61.55-21.52-42.05-47.16,16.13-21.2,55.48-25.71,55.48-25.71l-3.05-.1c-6.08.43-13.73,1.2-21.61,2.58l.15.1s-10.36,1.76-23.87,6.47c0,0,0,0,0,0-.86.37-1.67.65-2.43.87-7.23,2.64-15.2,6.12-22.88,10.58l-12.8,8.75c-12.04,9.74-21.5,22.71-23.16,39.77-5.16,52.9,65.8,43.22,114.83,40.64,49.03-2.58,74.18,34.4,74.18,34.4-20.64-37.85-56.12-69.23-92.78-71.19Z" style="fill: #806dfe; stroke-width: 0px;"/>
        </g>
        <g>
          <path d="M1789.67,461.02c.77.15,1.2.24,1.2.24,0,0-.29-.13-1.2-.24Z" style="fill: #1b1924; stroke-width: 0px;"/>
          <path d="M1825.06,293.54c-13,2.01-19.97,4.7-23.29,7.52l-9.52-1.28s-145.11,40.51-149.46,185.18c-27.77,21.05-59.64,60.34-74.48,133.06l48-63.78,29.27-40.36c11.42-11.37,39.79-35.49,82.06-44.23,44.86-9.28,58.39-9.08,62.02-8.63-8.43-1.67-60.09-11.12-96.88.26h0s-8.5,1.21-21.19,6.71l5.03-14.47,11.61-59.63,24.16-32.16,59.58-32.71,23.87-17.42,4.83-1.84c2.56,3.66,7.62,6.36,7.62,6.36,0,0,47.09-12.9,108.37,4.52,0,0-45.8-34.19-91.6-27.09Z" style="fill: #1b1924; stroke-width: 0px;"/>
        </g>
        <path d="M2123.73,1108.29l25.61-17.42s0,35.48,4.06,70.31c0,0-19.16-3.87-29.67-52.9Z" style="fill: #4026ac; stroke-width: 0px;"/>
        <path d="M2074.06,1050.87s63.03-18.71,104.32,17.42l-29.03,22.58s-65.42-32.9-75.29-40Z" style="fill: #fff; stroke-width: 0px;"/>
        <path d="M2149.35,1090.87s-4.52,38.06,4.06,70.31c0,0,41.74-36.77,24.97-92.89l-29.03,22.58Z" style="fill: #806dfe; stroke-width: 0px;"/>
        <path d="M2138.57,1098.2s-12.71-3.73-14.84-20.37c0,0,23.03-7.6,36.37,4.68,0,0,2.79,23.2-11.69,43.52,0,0-9.65-5.66-9.84-27.83Z" style="fill: #1b1924; stroke-width: 0px;"/>
        <path d="M2180.31,1161.18s24.58-7.09,36.29-38.38c11.72-31.29,10.42-54.36,10.42-54.36,0,0,23.89,45.76-10.42,105.69-34.32,59.93-36.29-12.96-36.29-12.96Z" style="fill: #1b1924; stroke-width: 0px;"/>
        <path d="M2235.97,1190.61s27.8,5,49.63-13.81c21.84-18.81,27.59-36.87,27.59-36.87,0,0,10.82,44.84-43.39,75.85-54.2,31.01-33.84-25.17-33.84-25.17Z" style="fill: #1b1924; stroke-width: 0px;"/>
        <path d="M1997.94,352.24s55.93,10.97,129.47-89.02l-53.99-23.02s-11.62,73.34-75.48,112.05Z" style="fill: #1b1924; stroke-width: 0px;"/>
        <path d="M2755.92,50.99c-69.02-65.8-210.94-74.18-366.41-3.87-21.44,9.7-41.97,20.86-61.44,32.89.02-.01,294.59-156.74,453.46,4.53l-1.68-2.9c-7.39-12.1-15.37-22.48-23.94-30.64Z" style="fill: #fff; stroke-width: 0px;"/>
        <path d="M2130.29,366.07c2.82,7.34-14.44,20.75-31.9,27.46-17.46,6.71-28.5,4.17-31.32-3.17-2.82-7.34,12.57-19.8,30.03-26.51,17.46-6.71,30.37-5.13,33.19,2.21Z" style="fill: #806dfe; stroke-width: 0px;"/>
        <path d="M2096,653.03c-4.21,8.13-14.44-2.5-34.1-12.68-19.66-10.18-41.31-16.04-37.1-24.18,4.21-8.13,32.62-7.33,52.28,2.85,19.66,10.18,23.13,25.87,18.92,34.01Z" style="fill: #806dfe; stroke-width: 0px;"/>
        <path d="M2417.74,703.67c11.78-15.23,27.98,9.91,63.32,37.24,35.33,27.34,76.41,46.52,64.63,61.75-11.78,15.23-68.52,4.14-103.85-23.19s-35.88-60.57-24.1-75.8Z" style="fill: #806dfe; stroke-width: 0px;"/>
        <path d="M2422.71,957.36s-59.24-37.26-76.61-91.87c0,0,59.17,62.69,134.18,54.43,76.12-8.39-57.56,37.44-57.56,37.44Z" style="fill: #1b1924; stroke-width: 0px;"/>
      </g>
    </g>
    <text transform="translate(312.47 569.04)" style="fill: #fff; font-family: Cabin-Bold, Cabin; font-size: 120px; font-variation-settings: &apos;wght&apos; 700, &apos;wdth&apos; 100; font-weight: 700; stroke: #fff; stroke-miterlimit: 10; stroke-width: 2px;"><tspan x="0" y="0" style="letter-spacing: .08em;">U</tspan><tspan x="95.73" y="0" style="letter-spacing: .08em;">N</tspan><tspan x="189.94" y="0" style="letter-spacing: .08em;">I</tspan><tspan x="233.22" y="0" style="letter-spacing: .07em;">F</tspan><tspan x="305.06" y="0" style="letter-spacing: .08em;">I</tspan><tspan x="348.33" y="0" style="letter-spacing: .06em;">E</tspan><tspan x="423.89" y="0" style="letter-spacing: .1em;">D </tspan><tspan x="561.29" y="0" style="letter-spacing: .05em;">D</tspan><tspan x="653.83" y="0" style="letter-spacing: 0em;">AT</tspan><tspan x="795.72" y="0" style="letter-spacing: .1em;">A</tspan><tspan x="0" y="144" style="letter-spacing: .07em;">P</tspan><tspan x="80.2" y="144" style="letter-spacing: .07em;">R</tspan><tspan x="164.22" y="144" style="letter-spacing: .08em;">O</tspan><tspan x="265.33" y="144" style="letter-spacing: .07em;">C</tspan><tspan x="346.76" y="144" style="letter-spacing: .08em;">E</tspan><tspan x="424.23" y="144" style="letter-spacing: .07em;">S</tspan><tspan x="502.63" y="144" style="letter-spacing: .08em;">S</tspan><tspan x="582.2" y="144" style="letter-spacing: .08em;">I</tspan><tspan x="625.47" y="144" style="letter-spacing: .08em;">N</tspan><tspan x="720" y="144" style="letter-spacing: .1em;">G</tspan><tspan x="0" y="288" style="letter-spacing: .07em;">F</tspan><tspan x="71.86" y="288" style="letter-spacing: .11em;">R</tspan><tspan x="160.45" y="288" style="letter-spacing: .1em;">A</tspan><tspan x="246.95" y="288" style="letter-spacing: .08em;">M</tspan><tspan x="356.07" y="288" style="letter-spacing: .1em;">E</tspan><tspan x="436.06" y="288" style="letter-spacing: .07em;">W</tspan><tspan x="559.68" y="288" style="letter-spacing: .08em;">O</tspan><tspan x="660.5" y="288" style="letter-spacing: .08em;">R</tspan><tspan x="745.28" y="288" style="letter-spacing: .1em;">K</tspan></text>
    <text transform="translate(316.47 1001.95)" style="fill: #ff5547; font-family: Cabin-SemiBold, Cabin; font-size: 42.94px; font-variation-settings: &apos;wght&apos; 600, &apos;wdth&apos; 100; font-weight: 600;"><tspan x="0" y="0" style="letter-spacing: .07em;">c</tspan><tspan x="22.59" y="0" style="letter-spacing: .09em;">o</tspan><tspan x="50.59" y="0" style="letter-spacing: .09em;">m</tspan><tspan x="91.8" y="0" style="letter-spacing: .09em;">p</tspan><tspan x="120.04" y="0" style="letter-spacing: .09em;">o</tspan><tspan x="147.89" y="0" style="letter-spacing: .09em;">s</tspan><tspan x="169.77" y="0" style="letter-spacing: .09em;">e</tspan><tspan x="195.61" y="0" style="letter-spacing: .1em;">r </tspan><tspan x="227.82" y="0" style="letter-spacing: .09em;">r</tspan><tspan x="245.5" y="0" style="letter-spacing: .09em;">e</tspan><tspan x="271.51" y="0" style="letter-spacing: .09em;">q</tspan><tspan x="299.61" y="0" style="letter-spacing: .09em;">ui</tspan><tspan x="340.18" y="0" style="letter-spacing: .09em;">r</tspan><tspan x="357.87" y="0" style="letter-spacing: .1em;">e </tspan><tspan x="398.18" y="0" style="letter-spacing: .09em;">f</tspan><tspan x="416.32" y="0" style="letter-spacing: .08em;">l</tspan><tspan x="430.61" y="0" style="letter-spacing: .07em;">o</tspan><tspan x="457.95" y="0" style="letter-spacing: .07em;">w</tspan><tspan x="492.27" y="0" style="letter-spacing: .08em;">-</tspan><tspan x="513.79" y="0" style="letter-spacing: .09em;">p</tspan><tspan x="541.98" y="0" style="letter-spacing: .09em;">h</tspan><tspan x="569.26" y="0" style="letter-spacing: .07em;">p</tspan><tspan x="596.69" y="0" style="letter-spacing: .06em;">/</tspan><tspan x="614.13" y="0" style="letter-spacing: .09em;">e</tspan><tspan x="639.94" y="0" style="letter-spacing: .08em;">t</tspan><tspan x="658.24" y="0" style="letter-spacing: .1em;">l</tspan></text>
    <g>
      <g>
        <rect x="320.14" y="300.46" width="48.07" height="8.74" style="fill: #5945d8; stroke-width: 0px;"/>
        <rect x="379.14" y="300.46" width="48.07" height="8.74" style="fill: #ff5547; stroke-width: 0px;"/>
        <rect x="344.18" y="323.95" width="48.07" height="8.74" style="fill: #806dfe; stroke-width: 0px;"/>
        <rect x="355.1" y="278.06" width="48.07" height="8.74" style="fill: #4026ac; stroke-width: 0px;"/>
      </g>
      <g>
        <polygon points="495.77 287.74 495.77 278.99 462.32 278.99 462.32 332.61 471.64 332.61 471.64 309.01 488.11 309.01 488.11 300.26 471.64 300.26 471.64 287.74 495.77 287.74" style="fill: #fff; stroke: #fff; stroke-miterlimit: 10; stroke-width: 2px;"/>
        <path d="M517.15,324.16v-45.17h-9.31v53.62h32.46v-1.89c0-3.62-2.93-6.56-6.56-6.56h-16.59Z" style="fill: #fff; stroke: #fff; stroke-miterlimit: 10; stroke-width: 2px;"/>
        <path d="M598.37,311.77c1.33-4.55,1.4-9.11.2-13.55-1.2-4.44-3.64-8.52-7.24-12.12s-7.68-6.04-12.12-7.24c-4.44-1.2-9-1.14-13.55.2-4.54,1.33-8.85,4.01-12.81,7.97-3.96,3.96-6.64,8.27-7.97,12.81-1.33,4.55-1.4,9.11-.2,13.55,1.2,4.44,3.64,8.52,7.24,12.12,3.61,3.61,7.68,6.04,12.12,7.24,4.44,1.2,9,1.14,13.55-.2,4.54-1.33,8.85-4.01,12.81-7.97,3.96-3.96,6.64-8.26,7.97-12.81ZM583.47,317.65c-2.52,2.52-5.27,4.36-8.17,5.49-2.88,1.12-5.81,1.39-8.71.8-2.89-.59-5.69-2.21-8.3-4.82-2.61-2.61-4.23-5.4-4.82-8.3-.59-2.9-.32-5.83.8-8.71,1.13-2.91,2.98-5.66,5.49-8.17s5.27-4.37,8.17-5.5c2.88-1.12,5.81-1.39,8.71-.8,2.89.59,5.69,2.21,8.3,4.82,2.61,2.61,4.23,5.4,4.82,8.3.59,2.9.32,5.83-.8,8.71-1.13,2.91-2.98,5.66-5.5,8.17Z" style="fill: #fff; stroke: #fff; stroke-miterlimit: 10; stroke-width: 2px;"/>
        <polygon points="667.12 278.99 656.78 317.92 644.6 279.59 636.63 279.59 624.63 318.31 614.12 278.99 604.38 278.99 619.58 332.61 628.65 332.61 640.58 294.67 652.58 332.61 661.39 332.61 676.86 278.99 667.12 278.99" style="fill: #fff; stroke: #fff; stroke-miterlimit: 10; stroke-width: 2px;"/>
        <path d="M746.07,286.5c-1.52-2.59-3.74-4.52-6.57-5.72-2.8-1.19-6.14-1.79-9.94-1.79h-18.57v29.23h9.54v-21.04h7.94c3.61,0,6.28.77,7.92,2.28,1.63,1.5,2.46,3.92,2.46,7.2s-.85,5.66-2.53,7.17c-1.7,1.53-4.31,2.3-7.78,2.3l-17.55-.04v26.54h9.54v-18.31h9.11c3.78,0,7.11-.62,9.89-1.85,2.82-1.24,5.03-3.21,6.55-5.83,1.51-2.61,2.28-6,2.28-10.09s-.77-7.46-2.28-10.03Z" style="fill: #fff; stroke: #fff; stroke-miterlimit: 10; stroke-width: 2px;"/>
        <polygon points="793.35 278.99 793.35 300.3 768.73 300.3 768.73 278.99 759.42 278.99 759.42 332.61 768.73 332.61 768.73 309.08 793.35 309.08 793.35 332.61 802.66 332.61 802.66 278.99 793.35 278.99" style="fill: #fff; stroke: #fff; stroke-miterlimit: 10; stroke-width: 2px;"/>
        <path d="M853.92,286.5c-1.52-2.59-3.74-4.52-6.57-5.72-2.79-1.19-6.14-1.79-9.94-1.79h-18.57v53.62h9.54v-18.31h9.11c3.78,0,7.11-.62,9.89-1.85,2.82-1.24,5.03-3.21,6.55-5.83,1.51-2.61,2.28-6,2.28-10.09s-.77-7.46-2.28-10.03ZM846.7,296.64c0,3.25-.85,5.66-2.53,7.17-1.7,1.53-4.31,2.3-7.78,2.3h-8.01v-18.94h7.94c3.61,0,6.28.77,7.93,2.28,1.63,1.5,2.46,3.92,2.46,7.2Z" style="fill: #fff; stroke: #fff; stroke-miterlimit: 10; stroke-width: 2px;"/>
      </g>
    </g>
  </g>
</svg>