<?xml version="1.0" encoding="UTF-8"?>
<svg id="Layer_2" data-name="Layer 2" xmlns="http://www.w3.org/2000/svg" viewBox="0 0 2827.19 2645.26">
  <defs>
    <style>
      .cls-1 {
        fill: #5945d8;
      }

      .cls-1, .cls-2, .cls-3, .cls-4, .cls-5, .cls-6, .cls-7, .cls-8 {
        stroke-width: 0px;
      }

      .cls-2 {
        fill: #4026ac;
      }

      .cls-3 {
        fill: #1b1924;
      }

      .cls-4 {
        fill: #e1761a;
      }

      .cls-5 {
        fill: #ad6126;
      }

      .cls-6 {
        fill: #806dfe;
      }

      .cls-7 {
        fill: #8c4716;
      }

      .cls-8 {
        fill: #fff;
      }
    </style>
  </defs>
  <g id="Layer_5" data-name="Layer 5">
    <g>
      <path class="cls-3" d="M2679.72,156.18c-120.42-161.65-336.32-193.11-645.52-116.09-309.2,77.03-513.87,337.55-513.87,337.55l-26.73,26.98c-135.61-29.29-233.87-21.09-318.96,8.68-586.35-312.38-896.36-125.31-855.13,194.74,36.05,279.83,168.3,527.31,200.97,585.09-29.5,61.06-15.99,108.71-15.99,108.71C219.15,1336.56,0,1055.57,0,1055.57c64.78,703.02,601.81,695.43,601.81,695.43,0,0-10.85,161.65,149.72,247.36-6,78.38,94.39,249.53,206.13,262.55,19.53,83.54,165.72,281.81,493.95,356.93,386.52,88.47,745.3-27.06,701.94-493.63-7.86-84.61-57.62-177.29-127.84-268.71.87-1.43,1.54-2.99,1.99-4.69,18.44-70.52,134.53-148.63,314.62-202.88,180.09-54.25,343.92-233.26,441.19-591.82,97.27-358.56,18.58-735.68-103.78-899.93Z"/>
      <path class="cls-8" d="M844.06,970.95s79.2,120.42,213.73,100.9c0,0-31.46-21.7-18.44-73.77,0,0,32.55,40.14,58.59,43.4,26.04,3.25,65.09,29.29,65.09,29.29,0,0-55.33,70.52-119.34,77.03-64.01,6.51-141.01-47.62-152.42-68.29-11.41-20.67-36.36-52.13-47.21-108.55Z"/>
      <path class="cls-1" d="M2565.81,191.98c-116.09-110.66-354.76-124.76-616.23-6.51-261.46,118.25-442.64,365.61-442.64,365.61-331.98-147.55-513.16,77.03-513.16,77.03,0,0-258.05,85.71-212.02,264.72,0,0-33.94,23.12-68.64,65.06-42.69,51.59-86.53,131.66-69.77,232.2,0,0-121.51,144.29,2.17,283.16,0,0-69.42,101.98,63.47,238.68,0,0,1.62,172.5,123.13,249.53,0,0,22.78,124.76,133.44,195.28,0,0,181.6,222.76,433.96,339.58,248.44,115,808.26,79.2,632.5-416.6,0,0-83.54,256.53-365.61,153.76-282.08-102.77-361.27-489-369.95-521.55,0,0,380.55-58.55,329.86-561.48l181.13-20.03c-179.01,487.12,155.14,645.52,155.14,645.52,0,0,28.21-60.75,88.96-101.98,60.75-41.23,149.72-35.8,354.76-151.89s297.26-520.76,312.45-694.34-36.89-525.1-152.97-635.76ZM1619.2,1125.84h0s0,0,0,0h0Z"/>
      <path class="cls-2" d="M1311.7,683.29c86.01-47.86,105.11-164.41,105.13-164.58-17.74-4.83-34.96-8.57-51.64-11.35,14.67,116-53.49,175.93-53.49,175.93Z"/>
      <path class="cls-2" d="M844.06,970.95s74.54,126.93,209.07,107.41c0,0-26.81-28.21-13.79-80.28,0,0,32.55,40.14,58.59,43.4,26.04,3.25,65.09,29.29,65.09,29.29,0,0-55.33,70.52-119.34,77.03-64.01,6.51-141.01-47.62-152.42-68.29-11.41-20.67-36.36-52.13-47.21-108.55Z"/>
      <path class="cls-6" d="M2065.01,2231.84c-37.48,310.16-553.72,361.73-949.48-31.39-46.02-52.31-1.7-69.45-1.7-69.45l-36.84,5.14-15.59,6.84c-33.46-37.94-65.78-79.34-96.58-124.31-63.1-98.8,43.72-124.53,43.72-124.53-23.97-6.58-103.19,20.92-103.19,20.92l-3.63,2.48c-18.83-33.19-36.88-67.98-54.01-104.43-51.31-120.11,88.55-144.32,88.55-144.32h-96.09l-46.31,16.14c-14.88-39.7-27.67-78.14-38.53-115.35-27.46-106.18,39.45-106.79,39.45-106.79l-23.74-3.64-41.49,7.83c-13.39-63.95-20.76-123.92-23-180.12,0-3.95-.14-8.24-.44-12.94-.15-5.79-.25-11.55-.29-17.26,2.18-68.21,45.91-74.86,45.91-74.86l-43.03-3.12c4.6-55.63,14.52-107.01,28.63-154.42,49.99-141.19,187.89-144.65,187.89-144.65l-66.69-.2-69.59,18.2c4-7.59,8.12-15.04,12.34-22.36l22.44-3.57s-4.97-31.68,71-119.87c94.39-109.58,227.71-116.39,227.71-116.39,0,0-59.55-20.31-62.08-21.72-.45-.25-3.44.28-8.06,1.3.69-.46,1.39-.91,2.08-1.36h47.33s143-115.61,288.06-101.55c-33.5-7.29-64.98-10.7-94.42-11.14.02,0,.03,0,.03,0-.22,0-.44,0-.67,0-2.55-.03-5.09-.04-7.61-.04-.4,0-.8,0-1.2,0-11.97.08-23.58.65-34.84,1.65-.11.01-.22.02-.34.03-2.64.24-5.27.5-7.87.78-.35.04-.7.08-1.05.12-2.38.27-4.74.55-7.08.85-.43.06-.86.11-1.29.17-2.28.3-4.55.62-6.8.96-.42.06-.84.13-1.26.19-2.3.35-4.57.72-6.84,1.1-.33.06-.67.11-1,.17-2.44.42-4.86.86-7.26,1.32-.14.03-.27.05-.41.08-13.01,2.5-25.45,5.56-37.32,9.05-.15.04-.29.09-.44.13-2.19.65-4.36,1.31-6.51,1.98-.24.07-.47.15-.7.22-2.08.66-4.14,1.32-6.18,2-.24.08-.48.16-.72.24-2.07.7-4.13,1.4-6.17,2.13-.17.06-.33.12-.5.18-13.41,4.77-25.99,10.04-37.73,15.61-.06.03-.12.06-.18.09-1.86.89-3.71,1.78-5.53,2.68-.15.07-.3.15-.45.22-1.75.87-3.47,1.74-5.18,2.62-.16.08-.32.17-.49.25-1.72.89-3.43,1.78-5.11,2.68-.11.06-.22.12-.33.18-10.88,5.82-20.92,11.83-30.1,17.82-.09.06-.17.11-.26.17-1.41.92-2.8,1.84-4.17,2.76-.16.11-.32.22-.49.33-1.3.87-2.58,1.75-3.84,2.62-.18.12-.36.25-.54.37-1.25.87-2.49,1.74-3.71,2.6-.16.11-.31.22-.47.33-1.28.91-2.53,1.81-3.77,2.71-.08.06-.15.11-.23.17-5.34,3.9-10.31,7.73-14.88,11.43-.08.06-.15.12-.23.18-1.03.83-2.04,1.66-3.03,2.47-.19.16-.38.32-.57.47-.86.71-1.71,1.42-2.54,2.13-.24.21-.48.41-.73.62-.77.65-1.52,1.3-2.27,1.94-.26.22-.52.45-.78.67-.71.62-1.41,1.23-2.1,1.84-.25.22-.5.44-.75.66-.68.61-1.35,1.2-2.01,1.8-.23.21-.46.41-.69.62-.69.62-1.36,1.23-2.02,1.84-.18.16-.36.33-.53.49-.8.74-1.58,1.46-2.33,2.17-.02.02-.05.04-.07.06-.02.02-.04.04-.06.05h0c-12.87,12.12-19.41,20.23-19.41,20.23,0,0-7,2.32-18.48,7.01-1.37.38-2.13.59-2.13.59l-.95.68c-61.04,25.38-228.25,109.46-190.46,256.44,0,0-5.08,3.47-13.31,10.13l-4.11,1.07-1.75,3.78c-13.02,11.02-31.13,27.92-49.47,50.08-42.69,51.59-86.53,131.66-69.77,232.2,0,0-121.51,144.29,2.17,283.16,0,0-69.42,101.98,63.47,238.68,0,0,1.62,172.5,123.13,249.53,0,0,22.78,124.76,133.44,195.28,0,0,181.6,222.76,433.96,339.58,220.12,101.89,684.64,85.4,665.48-264.49Z"/>
      <path class="cls-8" d="M773.61,1709.77h-27.15l-32.97,25.1-2.16,6.84c3.26,26.67,11.03,67.91,29.57,109.56-.92-7.71-21.93-99.19,32.7-141.5Z"/>
      <path class="cls-8" d="M675.98,1488.6h-38.16c-9.74,24.03-21.63,74.7,10.75,140.52,0,0-26.43-78.53,27.41-140.52Z"/>
      <path class="cls-8" d="M640.86,1169.48c-1.08-33.63,53.96-225.6,168.16-267.97l-45.18,3.6-1.25,2.7c-13.02,11.02-38.3,30.12-56.64,52.29-33.12,40.04-74.86,96.56-65.09,209.39Z"/>
      <path class="cls-8" d="M613.29,1427.75c-1.43-6.49-33.38-156.78,58.99-237.01l-7.55-10.41-22.38,3.24c.31,2.17.63,4.34,1,6.53,0,0-96.41,114.49-30.06,237.66Z"/>
      <path class="cls-8" d="M1218.54,506.75c-.33.06-.67.11-1,.17-2.44.42-4.86.86-7.26,1.32-.14.03-.27.05-.41.08-13.01,2.5-25.45,5.56-37.32,9.05-.15.04-.29.09-.44.13-2.19.65-4.36,1.31-6.51,1.98-.24.07-.47.15-.7.22-2.08.66-4.14,1.32-6.18,2-.24.08-.48.16-.72.24-2.07.7-4.13,1.4-6.17,2.13-.17.06-.33.12-.5.18-13.41,4.77-25.99,10.04-37.73,15.61-.06.03-.12.06-.18.09-1.86.89-3.71,1.78-5.53,2.68-.15.07-.3.15-.45.22-1.75.87-3.47,1.74-5.18,2.62-.16.08-.32.17-.49.25-1.72.89-3.43,1.78-5.11,2.68-.11.06-.22.12-.33.18-10.88,5.82-20.92,11.83-30.1,17.82-.09.06-.17.11-.26.17-1.41.92-2.8,1.84-4.17,2.76-.16.11-.32.22-.49.33-1.3.87-2.58,1.75-3.84,2.62-.18.12-.36.25-.54.37-1.25.87-2.49,1.74-3.71,2.6-.16.11-.31.22-.47.33-1.28.91-2.53,1.81-3.77,2.71-.08.06-.15.11-.23.17-5.34,3.9-10.31,7.73-14.88,11.43-.08.06-.15.12-.23.18-1.03.83-2.04,1.66-3.03,2.47-.19.16-.38.32-.57.47-.86.71-1.71,1.42-2.54,2.13-.24.21-.48.41-.73.62-.77.65-1.52,1.3-2.27,1.94-.26.22-.52.45-.78.67-.71.62-1.41,1.23-2.1,1.84-.25.22-.5.44-.75.66-.68.61-1.35,1.2-2.01,1.8-.23.21-.46.41-.69.62-.69.62-1.36,1.23-2.02,1.84-.18.16-.36.33-.53.49h39.3s61.02-72.67,163.58-98.85Z"/>
      <path class="cls-8" d="M969.82,637.39c-58.54,24.7-203.36,99.01-193.03,226.2,0,0,36.71-147.64,193.03-226.2Z"/>
      <path class="cls-2" d="M1763.05,2352.1c50.19-1.49,220.42-18.61,294.81-179.31-5.49-29.04-13.93-60.03-25.64-93.07,0,0-83.54,256.53-365.61,153.76-282.08-102.77-361.27-489-369.95-521.55,0,0,21.9-3.37,54.48-15.43l-13.45-7.35-346.09-369.95-147.36-348.26s-210.47,584.77,318.96,776.79c0,0,201.71,612.28,599.84,604.36Z"/>
      <path class="cls-2" d="M1272.6,1078.35s58.59,1.7,82.45-33.32,0-87.1-32.55-113.14c-32.55-26.04,4.34-62.92,67.26-72.69l-81.37,15.19-63.19,47.6-6.24,57.64-32.16,37.66-22.71,16.11,9.81,33.32,78.69,11.63Z"/>
      <path class="cls-2" d="M1295.38,1709.77l1.76,2.06c16.13-2.75,317.8-59.33,333.22-441.51-.32-1.7-.64-3.43-.97-5.23-31.6-174.54-186.46-234.47-186.46-234.47,0,0,155.91,117.17,105.83,290.34-37.19-17.07-78.2-29.12-119.14-28.29,0,0,147.09,134.65,3.17,288.36l-137.41,128.75Z"/>
      <path class="cls-2" d="M1905.1,853.78s-218.07,17.36-317.88-117.17c0,0,237.59-437.22,789.81-457.83,0,0-442.64,110.66-584.77,490.38,0,0,35.8,46.65,112.83,84.62Z"/>
      <path class="cls-1" d="M1420.14,1871.42s-6.51,53.16,83.54,96.56c0,0,13.02,73.77,49.91,88.96,0,0,115-69.43,185.52,123.68,0,0,184.43,32.55,212.64-159.48,0,0-130.51-309.2-463.26-208.3-27.22,8.25-49.91,30.38-68.35,58.59Z"/>
      <path class="cls-6" d="M1676.95,2014.63l-9.6,53.66c25.05,19.56,50.44,53.94,71.76,112.33,0,0,23.5,4.14,54.99.75-33.14-130.42-117.15-166.74-117.15-166.74Z"/>
      <path class="cls-2" d="M1877.5,2152.5c34.31-23.03,64.2-62.93,74.25-131.36,0,0-137.02-317.88-463.26-208.3-26.97,9.06-49.91,30.38-68.35,58.59,0,0,392.42,7.59,457.35,281.08Z"/>
      <g>
        <path class="cls-2" d="M1580.71,866.8c-39.06,74.86-24.79,163.82-24.79,163.82-43.24-16.27-112.99,0-112.99,0,61.96,4.62,108.62,19.2,143.05,36.1-23.6-92.06-5.26-199.92-5.26-199.92Z"/>
        <path class="cls-2" d="M1442.93,1030.62l12.26,5.56c-7.7-3.8-12.26-5.56-12.26-5.56Z"/>
      </g>
      <path class="cls-3" d="M1523.21,1360.43s69.27,91.52-8.76,226.94c-78.03,135.42,99.89-105.43,99.89-105.43,0,0-1.08-66.18-91.13-121.51Z"/>
      <path class="cls-3" d="M1128.3,2126.37s-146.65,39.71-85.26,113.7c61.39,73.99-9.13,93.52-9.13,93.52l-97.64-167.08s17.36-33.63,192.03-40.14Z"/>
      <path class="cls-3" d="M856.32,2030.52s-71.93-85.32,165.67-139.57c0,0-162.74-16.27-238.68,59.67-75.94,75.94,73.01,79.9,73.01,79.9Z"/>
      <path class="cls-3" d="M726.61,1813.13s-25.1-68.4,47.01-103.36c69.36-33.63,175.68-42.31,175.68-42.31,0,0-167.7-40.79-248.44,35.8-96.84,91.87,25.76,109.87,25.76,109.87Z"/>
      <path class="cls-3" d="M629.25,1567.65s-19.53-67.26,84.62-92.22c72.44-17.36,92.58-11.79,92.58-11.79,0,0-114.28-42.46-185.88,10.71-71.6,53.16,8.68,93.3,8.68,93.3Z"/>
      <path class="cls-3" d="M613.08,1239.5s18.34-38.56,71.5-52.66c42.41-11.25,67.16-5.04,67.16-5.04,0,0-58.48-41.61-132.26-3.64-73.77,37.97-6.4,61.34-6.4,61.34Z"/>
      <path class="cls-2" d="M1077.66,465.99c-10.28-6.62-129.55-81.45-317.14-116.69-196.37-36.89-304.25,82.33-328.73,179.01-43.4,171.42,137.78,615.14,137.78,615.14,0,0,33.63-81.37,70.52-125.85,36.89-44.48,91.13-187.69,119.34-251.7,28.21-64.01,154.06-122.59,154.06-122.59l32.7-35.07c30.49-63.65,82.97-110.25,131.47-142.25Z"/>
      <path class="cls-1" d="M483.87,665s64.01-122.59,300.52-39.06c0,0-146.46,83.54-126.93,258.21,0,0-65.11,57.5-80.29,94.39,0,0,15.2-77.03,40.15-99.81,0,0-37.97-11.93-90.05,10.85l-28.51-101.91s79.5-90.12,128.32-107.48c0,0-57.5-32.55-143.21-15.19Z"/>
      <path class="cls-3" d="M554.39,692.13s-77.03,48.82-104.15,97.64c-27.12,48.82-25.16-65.07-25.16-65.07,0,0,14.31-23.89,129.31-32.57Z"/>
      <path class="cls-3" d="M564.15,915.62s-30.38,33.63-42.31,117.17c-12.91,90.4-23.87-65.09-23.87-65.09,0,0,4.09-26.87,66.18-52.08Z"/>
      <path class="cls-6" d="M1077.66,465.99c-10.28-6.62-129.55-81.45-317.14-116.69-196.37-36.89-304.25,82.33-328.73,179.01,0,0,74.86-103.07,303.77-54.25,115.93,24.72,193.73,56.96,242.29,82.76,29.12-38.18,65.46-68.16,99.8-90.83Z"/>
      <path class="cls-8" d="M931.28,396.47c-47.3-17.5-104.8-34.78-170.76-47.18-138.08-25.94-232.41,25.31-284.75,91.63.03-.03,108.99-130.69,455.51-44.45Z"/>
      <path class="cls-3" d="M825.62,541.32c60.84,33.46,98.09,54.18,120.58,66.92l55.42-59.44h0s-12.96,13.9-12.96,13.9c-47.5-26.63-128.16-62-253.09-88.64-114.59-24.44-190.58-10.82-237.89,8.88.81-.3,133.26-48.69,327.94,58.38Z"/>
      <path class="cls-3" d="M1581.8,1688.07s39.06-15.19,96.56-4.34c57.5,10.85,70.52,19.53,70.52,19.53,0,0-36.89-48.82-53.16-96.56-16.27-47.74-18.44-79.2-18.44-79.2,0,0-8.68,103.07-95.47,160.57Z"/>
      <path class="cls-2" d="M2720.93,812.99c.06-.92.11-1.85.17-2.78.09-1.54.18-3.09.26-4.65.05-.97.1-1.95.15-2.93.08-1.57.15-3.16.21-4.75.04-.97.08-1.94.12-2.92.06-1.7.12-3.42.18-5.15.03-.88.06-1.75.08-2.63.06-2.11.11-4.25.15-6.39.01-.51.03-1.02.03-1.54.05-2.7.09-5.43.12-8.18,0-.52,0-1.05,0-1.58.02-2.21.03-4.43.03-6.68,0-.89,0-1.79,0-2.68,0-1.91-.01-3.82-.02-5.75,0-1-.02-2-.03-3-.02-1.87-.04-3.75-.07-5.65-.02-1.01-.03-2.02-.05-3.03-.04-1.97-.08-3.94-.13-5.93-.02-.93-.04-1.86-.07-2.8-.06-2.25-.13-4.51-.2-6.79-.02-.68-.04-1.35-.06-2.03-.2-6-.46-12.08-.76-18.22-.04-.73-.08-1.46-.11-2.19-.12-2.32-.24-4.64-.37-6.98-.05-.97-.11-1.94-.17-2.91-.12-2.13-.25-4.27-.39-6.42-.03-.49-.06-.98-.09-1.48,0,0,0,0,0,0-8.34-129.69-37.25-285.25-86.18-394.47l-199.19-48.42s39.06,67.46,60.75,128.38c0,0-327.64,83.77-452.41,390.59,0,0,214.81-263.29,524.01-216.51,0,0,20.66,86.05,32.05,151.1-116.81,14.73-270.2,47.62-344.51,120.89,0,0,151.89,10.88,364.53,145.79,0,0-3.25,164.29-52.08,242.62,0,0-88.96-100.09-277.74-113.15,0,0,86.79,201.28,106.32,365.56,0,0-74.3,83.02-235.43,90.3-422.35,19.09-183.35-403.64-275.57-529.85,0,0-203.96,0-301.6-151.23,0,0,14.04,138.29,83.54,174.08,80.28,41.34,51.85,84.43,44.48,113.15l97.64-25.02c-179.01,488.51,155.14,647.35,155.14,647.35,0,0,28.21-60.93,88.96-102.27,60.75-41.34,149.72-35.9,354.76-152.32s297.26-522.23,312.45-696.31c.2-2.31.39-4.65.57-7.02.06-.76.11-1.54.16-2.3.12-1.63.23-3.26.33-4.91Z"/>
      <path class="cls-3" d="M2369.44,1162.98s103.07,139.95,118.25,302.69c0,0,70.52-48.45,87.34-80.64l16.82-32.19s-75.94-133.44-222.41-189.86Z"/>
      <path class="cls-3" d="M1587.22,736.61c64.03,86.31,176.73,110.1,249.31,116.07h0s-126.71-30.36-171.19-106.3c0,0,158.3-304.68,409.82-409.27-338.13,123.88-487.93,399.51-487.93,399.51Z"/>
      <path class="cls-3" d="M1580.71,866.8s-18.34,107.87,5.26,199.92c-34.43-16.9-81.09-31.48-143.05-36.1,0,0,154.86,59.92,186.46,234.47,23.81,131.52,35.23-8.53,39.41-85.57,67.62,23.06,137.57-51.26,137.57-51.26,0,0-209.39-92.22-225.66-261.46Z"/>
      <path class="cls-6" d="M2719.86,825.57c15.19-173.59-36.89-525.1-152.97-635.76-116.09-110.66-354.76-124.76-616.23-6.51-261.46,118.25-442.64,365.61-442.64,365.61-12.75-5.67-25.28-10.78-37.58-15.38l-151.51,159.68s103.38,13.02,322.53-207.22c219.15-220.24,706.28-416.6,908.07-132.36,201.42,283.72,158.67,560.86,158.51,561.88,5.68-33.88,9.58-64.41,11.82-89.94Z"/>
      <path class="cls-3" d="M1423.4,1474.34c-44.48-151.89-204.13-137.78-204.13-137.78,56.25-75.94,170.49-14.84,170.49-14.84,0,0-42.31-62.19-124.76-57.85-82.45,4.34-201.79,20.61-193.11-68.35,5.37-55.05,58.93-84.75,98.98-99.4,1.28-.37,2.64-.84,4.09-1.46,0,0,0,0,0,0,22.71-7.93,40.14-10.88,40.14-10.88l-.25-.17c29.81-5.22,57.75-5.25,57.75-5.25-85.71-7.59-75.94-52.08-75.94-52.08l-.38.11c.17-.16.33-.33.5-.49,9.37,8.41,20.96,13.4,33.52,13.4,31.16,0,56.42-30.6,56.42-68.35,0-20.59-7.52-39.04-19.41-51.57.68-.89,1.36-1.78,2.05-2.68,36.89-47.74,120.42-57.5,120.42-57.5-190.94,8.68-158.4,93.3-192.03,128.02-58.72,60.61-158.4,10.85-158.4,10.85,42.31,99.81,109.58,75.94,109.58,75.94-218.07,156.23-304.05-107.85-304.86-103.07-106.32,631.42,452.09,740.99,452.09,740.99,85.71-7.59,171.73-85.71,127.25-237.59Z"/>
      <path class="cls-8" d="M1389.77,859.2s-14.1-43.4-72.69-55.33c-60.29-12.28-113.75,19.96-142.12,86.79,34-51.78,93.83-94.58,214.81-31.46Z"/>
      <path class="cls-6" d="M1197.74,987.22c33.63-34.72,1.08-119.34,192.03-128.02-174.67-91.13-206.13,2.17-244.1,99.81-25.68,66.03-106.32,39.06-106.32,39.06,0,0,99.68,49.76,158.4-10.85Z"/>
      <path class="cls-3" d="M1046.79,918.93s58.24,30.23,87.99-46.82c31.3-81.07,78.91-92.17,109.51-96.91,30.6-4.74,49.66,4.69,49.66,4.69,0,0-40.84-47.52-135.23-18.37-92.19,28.47-111.94,157.42-111.94,157.42Z"/>
      <g>
        <path class="cls-5" d="M1285.82,1398s.02,0,.02,0c0,0-.02,0-.02,0-7.96-3.32-16.06-5.15-24.08-5.3-297.27-65.37-400.32-336.05-400.32-336.05-12.76,431.96,347.6,558.48,416.26,578.64,3.72,1.36,7.47,2.39,11.22,3.07h0c8.7,1.58,17.4,1.3,25.84-1.11,43.65-12.46,63.55-76.83,44.44-143.79-13.36-46.82-42.26-82.5-73.36-95.47Z"/>
        <path class="cls-7" d="M1222.69,1561.14c-90.83-7.66-148.77-35.36-183.91-60.95,97.14,88.3,204.54,125.02,238.9,135.11,3.72,1.36,7.47,2.39,11.22,3.07h0c8.7,1.58,17.4,1.3,25.84-1.11,31.95-9.12,51.17-46.05,51.69-91.45-26.66,12.67-70.77,21.49-143.74,15.33Z"/>
        <path class="cls-4" d="M1366.43,1545.6c.17-16.57-2.15-34.26-7.25-52.14-13.36-46.82-42.26-82.5-73.36-95.47-7.96-3.32-16.06-5.15-24.08-5.3-297.27-65.37-400.32-336.05-400.32-336.05-.7,23.82-.27,46.71,1.18,68.7,21.42,58.27,67.19,150.93,156.13,215.54,100.32,72.89,142.88,88.59,158.78,91.69-25.25,3.51-49.56,6.4-70.91,8.12,0,0,106.31,104.54,259.83,104.89Z"/>
        <path class="cls-8" d="M914.17,1152.4c-36.98-54.34-52.75-95.75-52.75-95.75-3.5,118.51,21.09,214.03,60.03,290.67-12.06-45.79-27.73-128.26-7.28-194.92Z"/>
      </g>
      <g>
        <path class="cls-5" d="M526.96,1404.77c-280.51,20.32-461.75-217.19-461.75-217.19,112.99,359.8,376.71,436.14,504.16,451.66-51.29-98.51-47.48-193.41-42.41-234.47Z"/>
        <path class="cls-4" d="M533.13,1537.73c-12.17-57.72-9.43-106.51-6.17-132.97-280.51,20.32-461.75-217.19-461.75-217.19,7.57,24.12,15.83,46.96,24.67,68.6,38.86,52.04,110.94,131.25,211.3,169.33,113.21,42.95,156,45.9,171.04,44.22-20.97,11.13-41.34,21.34-59.5,29.5,0,0,50.07,28.22,120.41,38.5Z"/>
        <path class="cls-8" d="M144.49,1267.8c-51.18-43.4-79.27-80.22-79.27-80.22,37.68,120,92.14,208.47,152.71,273.67-26.35-42.32-68.48-120.38-73.44-193.45Z"/>
        <path class="cls-7" d="M546.91,1587.23c-77.73,16.77-135.15,6.64-173.32-7.89,74.69,38.33,145.74,53.8,195.79,59.89-9.14-17.54-16.52-34.97-22.47-52.01Z"/>
      </g>
      <g>
        <path class="cls-6" d="M1389.77,1321.72s-13.33-7.13-33.12-13.49l33.12,13.49Z"/>
        <path class="cls-6" d="M1233.73,1201.99c-74.06-3.96-103.51-36.2-70.71-79.31,27.12-35.65,93.3-43.24,93.3-43.24l-5.13-.17c-10.22.72-23.09,2.02-36.34,4.34l.25.17s-17.43,2.95-40.14,10.88c0,0,0,0,0,0-1.45.62-2.8,1.09-4.09,1.46-12.16,4.45-25.56,10.29-38.49,17.8l-21.54,14.71c-20.25,16.38-36.16,38.19-38.96,66.89-8.68,88.96,110.66,72.69,193.11,68.35s124.76,57.85,124.76,57.85c-34.72-63.66-94.39-116.43-156.03-119.73Z"/>
      </g>
      <path class="cls-3" d="M2409.58,794.11s199.09,55.02,316.52,134.37l14.37-122.44s-94.39-55.33-330.9-11.93Z"/>
      <path class="cls-3" d="M2445.38,476.23s72.69-58.59,252.78-44.48l14.1,80.28s-171.42-42.31-266.89-35.8Z"/>
      <g>
        <path class="cls-3" d="M941.86,879.4c1.3.26,2.01.41,2.01.41,0,0-.48-.22-2.01-.41Z"/>
        <path class="cls-3" d="M1001.37,597.74c-21.87,3.39-33.58,7.91-39.16,12.65l-16.02-2.15s-244.05,68.13-251.36,311.43c-46.71,35.41-100.3,101.47-125.25,223.78l80.73-107.27,49.23-67.87c19.21-19.12,66.91-59.68,138.01-74.39,75.45-15.61,98.21-15.28,104.31-14.51-14.18-2.81-101.06-18.7-162.94.43h0s-14.29,2.03-35.63,11.29l8.45-24.33,19.52-100.29,40.63-54.08,100.2-55.02,40.14-29.29,8.11-3.1c4.31,6.16,12.82,10.7,12.82,10.7,0,0,79.2-21.7,182.26,7.59,0,0-77.03-57.5-154.06-45.57Z"/>
      </g>
      <path class="cls-2" d="M1503.68,1967.98l43.08-29.29s0,59.67,6.83,118.25c0,0-32.23-6.51-49.91-88.96Z"/>
      <path class="cls-8" d="M1420.14,1871.42s106-31.46,175.44,29.29l-48.82,37.97s-110.03-55.33-126.62-67.26Z"/>
      <path class="cls-6" d="M1546.76,1938.68s-7.59,64.01,6.83,118.25c0,0,70.2-61.84,41.99-156.23l-48.82,37.97Z"/>
      <path class="cls-3" d="M1528.64,1951.01s-21.38-6.28-24.95-34.25c0,0,38.74-12.79,61.16,7.86,0,0,4.7,39.02-19.66,73.19,0,0-16.24-9.52-16.55-46.8Z"/>
      <path class="cls-3" d="M1598.84,2056.94s41.34-11.92,61.04-64.54c19.7-52.63,17.53-91.41,17.53-91.41,0,0,40.18,76.96-17.53,177.76-57.71,100.8-61.04-21.8-61.04-21.8Z"/>
      <path class="cls-3" d="M1692.44,2106.43s46.75,8.41,83.47-23.23c36.73-31.64,46.4-62.01,46.4-62.01,0,0,18.19,75.41-72.97,127.56-91.16,52.16-56.91-42.33-56.91-42.33Z"/>
      <path class="cls-3" d="M1292.13,696.46s94.07,18.44,217.75-149.72l-90.81-38.72s-19.54,123.34-126.94,188.44Z"/>
      <path class="cls-8" d="M2566.89,189.81c-116.09-110.66-354.76-124.76-616.23-6.51-36.06,16.31-70.59,35.08-103.33,55.31.03-.02,495.44-263.6,762.63,7.62l-2.82-4.88c-12.43-20.35-25.85-37.8-40.26-51.54Z"/>
      <path class="cls-6" d="M1514.71,719.72c4.74,12.34-24.29,34.9-53.65,46.18-29.36,11.28-47.94,7.02-52.68-5.32-4.74-12.34,21.15-33.3,50.51-44.58,29.36-11.28,51.08-8.62,55.82,3.72Z"/>
      <path class="cls-6" d="M1457.04,1202.33c-7.08,13.68-24.29-4.2-57.35-21.32-33.07-17.11-69.47-26.98-62.39-40.66,7.08-13.68,54.86-12.33,87.93,4.79,33.07,17.11,38.9,43.51,31.81,57.19Z"/>
      <path class="cls-6" d="M1998.14,1287.5c19.81-25.61,47.06,16.66,106.49,62.64,59.42,45.97,128.51,78.24,108.7,103.85-19.81,25.61-115.24,6.97-174.66-39-59.42-45.97-60.34-101.87-40.53-127.48Z"/>
      <path class="cls-3" d="M2006.51,1714.14s-99.63-62.66-128.85-154.5c0,0,99.52,105.44,225.66,91.54,128.02-14.1-96.81,62.96-96.81,62.96Z"/>
    </g>
  </g>
</svg>