<svg xmlns="http://www.w3.org/2000/svg" xml:space="preserve" viewBox="143.97 183.99 1550 434"><circle cx="332.8" cy="372.8" r="188.8" style="fill:#e03c31"/><path d="M299.3 500.9c2.2 3.1-.4 7-4 6.2-62.1-8.4-106.1-99.9-48.4-152.7 63.8-58.5 78.3-93.3 70.9-111.8-.9-2.6 1.3-4.8 3.5-4 21.1 10.6 69.1 42.3 53.2 110.9 0 0 27.7-.4 28.6-26.4 0-2.6 3.1-3.5 4.8-2.2 11.9 11 41.4 42.7 37.4 84.5-5.7 60.7-47.5 92.4-78.3 99.9-3.1.9-5.7-2.6-4-5.3 8.8-13.2 24.6-40-8.4-66.5-24.6-18.5-27.7-37.9-24.2-49.7.4-2.2-1.8-3.5-3.1-2.2-63.4 53.7-40.5 101.7-28.2 119.3Z" style="fill:#fff"/><path d="M721 398.8c0 44.5-21.6 65.6-58.1 65.6s-56.3-18-56.3-54.6V297.6c0-8.4 6.6-14.5 14.5-14.5s14.5 6.6 14.5 14.5v46.6c5.3-5.3 16.7-11 29.9-11 34.3 0 55.5 21.1 55.5 65.6m-85.4 11c0 18.9 11 29.5 26.8 29.5s29-13.6 29-40.5-10.6-40.5-29-40.5-26.8 14.1-26.8 14.1zm129.8-112.3v133.4c0 3.1 3.1 4.8 5.3 4.8 7.5 0 13.6 6.2 13.6 13.6s-6.2 13.6-13.6 13.6c-21.1 0-34.8-11.9-34.8-34.8V297.4c0-8.4 6.6-14.5 14.5-14.5 8.4-.4 15 6.2 15 14.5Zm51.5 72.2c-2.6 1.8-4.8 2.6-8.4 2.6-7 0-12.8-5.7-12.8-12.8s.9-6.2 3.5-8.8c7.5-8.4 21.1-17.6 44.5-17.6 33.9 0 54.1 16.7 54.1 45.3v69.5c0 7.9-6.6 14.5-14.5 14.5s-14.5-6.6-14.5-14.5c-7.5 11.9-19.4 15.8-35.7 15.8-26.8 0-44.5-16.7-44.5-40.9s20.2-38.3 44-38.3h35.7v-4.8c0-12.3-8.8-20.2-24.7-20.2s-20.2 5.3-26.8 10.1Zm51.9 45.8V408h-31.7c-11.9 0-18.5 5.7-18.5 15.4s7.5 16.7 22.5 16.7c14.5-.4 27.7-9.7 27.7-24.6m103-82.3c25.1 0 39.6 12.3 44.5 18.9 2.2 3.1 3.1 5.3 3.1 8.4 0 7.5-5.7 13.2-13.2 13.2s-7.5-1.8-10.1-4.8c-3.5-4-10.6-10.6-24.2-10.6s-29.5 14.5-29.5 40.5 10.6 40.5 29.5 40.5 20.7-6.2 26.8-11c3.1-2.2 5.3-2.6 8.4-2.6 7.5 0 13.2 5.7 13.2 13.2s-1.3 7-4.8 10.1c-6.2 5.7-21.1 15.4-43.6 15.4-37 0-59-21.1-59-65.6s22-65.6 59-65.6Zm141.3 124.1-40.5-54.6-8.8 6.6v39.2c0 8.4-6.6 14.1-14.5 14.1s-14.5-6.2-14.5-14.1V296.7c0-8.4 6.2-14.1 14.5-14.1s14.5 6.2 14.5 14.1v80.1l49.3-38.7c3.5-2.6 6.2-3.5 9.7-3.5 7.9 0 14.1 6.2 14.1 14.1s-1.8 8.4-5.3 11l-35.7 27.3 40.1 52.4c2.2 3.1 3.1 6.2 3.1 8.8 0 7.9-6.2 14.1-14.1 14.1-5.7.9-9.2-1.8-11.9-4.8Zm43.1-95.5c-6.6 0-12.3-5.3-12.3-12.3s5.3-12.3 12.3-12.3h5.7v-14.5c0-25.5 16.7-41.4 51.9-41.4s12.8 5.7 12.8 12.8-5.7 12.8-12.8 12.8c-15 0-22.4 8.4-22.4 20.2v10.1h18c6.6 0 12.3 5.3 12.3 12.3s-5.3 12.3-12.3 12.3h-18v87.1c0 8.4-6.6 14.1-14.5 14.1s-14.5-6.2-14.5-14.1v-87.1zm79.2-47.5c0-12.3 6.2-17.6 17.2-17.6s17.2 5.3 17.2 17.6-6.2 16.7-17.2 16.7-17.2-6.2-17.2-16.7m31.7 133.8c0 8.4-6.6 14.5-14.5 14.5s-14.5-6.6-14.5-14.5v-93.7c0-8.4 6.6-14.5 14.5-14.5s14.5 6.6 14.5 14.5zm48.9-97.3c5.3-10.6 18-17.6 29.5-17.6s14.1 6.2 14.1 14.1-6.2 14.1-14.1 14.1c-18.9 0-29.5 11.9-29.5 30.4v56.3c0 8.4-6.6 14.5-14.5 14.5s-14.5-6.6-14.5-14.5v-98.6c0-8.4 6.6-14.5 14.5-14.5s14.5 6.6 14.5 14.5zm104.3-17.6c46.2 0 54.6 35.2 54.6 54.1s0 22-16.7 22h-67.3c0 19.8 14.1 28.6 31.7 28.6s20.2-4 26.8-8.4c3.1-1.8 5.3-3.1 8.8-3.1 7 0 12.8 5.7 12.8 12.8s-2.2 7.9-4.8 10.1c-4.8 4.4-18.9 15-44 15-37.8 0-61.2-20.2-61.2-66 .4-41.8 22-65.1 59.4-65.1Zm-28.6 51.5h54.1c0-13.2-7.5-26.4-25.5-26.4s-27.3 9.2-28.6 26.4m98.1 67.8c0-9.2 4.8-13.2 12.8-13.2s12.8 4 12.8 13.2-4.8 12.8-12.8 12.8-12.8-4-12.8-12.8m39.6-139.6c0-7.9 4-11 10.6-11s10.6 3.1 10.6 11-4 10.6-10.6 10.6-10.6-4-10.6-10.6m19.4 143.5c0 4.8-4 8.8-8.8 8.8s-8.8-4-8.8-8.8V345c0-4.8 4-8.8 8.8-8.8s8.8 4 8.8 8.8zm131.6-55.9c0 44.9-22 66-57.7 66s-57.7-21.1-57.7-66 22.4-66 57.7-66 57.7 20.7 57.7 66m-17.6 0c0-34.8-14.5-50.2-39.6-50.2s-39.6 15.4-39.6 50.2 14.5 50.2 39.6 50.2 39.6-15 39.6-50.2M635.6 547.6h-6.8l-19.9 52.9h7.6l5.3-14.6h22.8l5.3 14.6h8.1l-20-52.9zm-11.5 31.8 9.1-25.2 9.1 25.2h-18.1Zm85.3-14.7c-2.5-1.6-5.4-2.4-8.8-2.4s-6.4.8-9 2.4c-1.9 1.2-3.3 2.8-4.3 4.7V563H680v52.6h7.6v-21.2q1.2 2.55 3.6 4.2c2.3 1.7 5.3 2.5 8.8 2.5s6.4-.8 9-2.4c2.5-1.6 4.5-3.9 6-6.8 1.4-2.9 2.1-6.4 2.1-10.3s-.7-7.3-2-10.1c-1.3-2.9-3.3-5.1-5.7-6.8m-3 26.6c-2 2.4-4.6 3.5-7.9 3.5s-6.1-1.2-8-3.5c-2-2.3-3-5.5-3-9.5s1-7.3 3-9.7c2-2.3 4.6-3.5 8-3.5s6.1 1.1 8 3.4c2 2.3 2.9 5.5 2.9 9.5s-1 7.4-2.9 9.7Zm48.6 2v-17.6c0-4.4-1.2-7.8-3.7-10-2.5-2.3-6.1-3.4-11-3.4s-8.6 1.1-11.4 3.2-4.4 4.9-4.8 8.5h7.3c.2-1.8 1.1-3.2 2.6-4.2q2.25-1.5 6-1.5c3.75 0 4.5.6 5.7 1.8q1.8 1.8 1.8 5.4v1.7l-10.7 1.7c-4.5.7-7.9 2-10.3 3.9s-3.6 4.6-3.6 7.9 1.1 5.8 3.4 7.7 5.3 2.8 9.1 2.8 6-.7 8.2-2.1c1.8-1.1 3.2-2.7 4.1-4.6 0 1.1 0 2 .1 2.9 0 1.1.2 2.2.5 3.1h7.4c-.3-1.3-.5-2.6-.7-3.7s-.2-2.3-.2-3.5Zm-10.4-.2c-1.9 1.4-4.4 2.1-7.3 2.1s-3.9-.4-5-1.3c-1.2-.9-1.7-2.1-1.7-3.9s.6-3.1 1.9-4c1.2-.9 3.1-1.6 5.6-2l9.5-1.5v5.2c0 2.2-1 3.9-2.9 5.4Zm32-28.3c-1.7 1.3-3.1 3.2-4 5.5V563h-7.3v37.5h7.6v-19.6c0-3.8.9-6.6 2.8-8.5 1.8-1.9 4.6-2.9 8.3-2.9h1.6c.4 0 .8 0 1 .2v-7.2q-.6-.3-2.4-.3c-3 0-5.6.8-7.7 2.5Zm28.7-13.3-7.6 2.9v8.6h-7.5v6.1h7.5v20.1c0 4 1 7 3.1 9 2 2 5.2 3.1 9.6 3.1s2.3 0 3.3-.2c1-.1 1.7-.3 2.3-.6v-6.2c-.5.2-1.1.4-1.8.5s-1.5.2-2.4.2c-2.3 0-4-.5-5-1.4s-1.5-2.4-1.5-4.3v-20.1H816v-6.1h-10.7v-11.5Zm58.9 13.2c-2.9-1.6-6.3-2.5-10.1-2.5s-7.2.8-10 2.5c-2.9 1.6-5.1 3.9-6.8 6.8-1.6 2.9-2.5 6.2-2.5 10.1s.8 7.1 2.4 10.1 3.9 5.3 6.8 7 6.2 2.5 10.1 2.5 7.3-.8 10.1-2.5c2.9-1.7 5.1-4 6.7-7s2.4-6.3 2.4-10.1-.8-7.2-2.4-10.1-3.8-5.2-6.7-6.8m-.2 23.9c-1 2-2.3 3.6-4 4.7s-3.7 1.7-6 1.7-4.2-.6-5.9-1.7-3.1-2.7-4-4.7c-1-2-1.4-4.4-1.4-7.1 0-4 1.1-7.1 3.2-9.5s4.9-3.5 8.2-3.5 6.1 1.2 8.3 3.5c2.1 2.3 3.2 5.5 3.2 9.5s-.5 5-1.5 7.1Zm32.6-41.8c-4.3 0-7.5 1-9.7 3.1-2.2 2-3.2 5-3.2 8.8v4.3h-7.2v6.1h7.2v31.4h7.6v-31.4h8.6V563h-8.6v-4.1c0-1.9.5-3.4 1.5-4.4 1-1.1 2.5-1.6 4.7-1.6s1.3 0 1.9.1c.6 0 1 .2 1.4.3v-5.9c-.5-.2-1.1-.3-1.7-.4-.6 0-1.4-.1-2.4-.1Zm59.1 32.4c0 5.1-1.2 8.9-3.5 11.5q-3.45 3.9-9.9 3.9c-6.45 0-7.5-1.3-9.8-3.9s-3.5-6.5-3.5-11.5v-31.6h-7.8v30.7c0 7.4 1.8 13 5.4 17q5.4 6 15.6 6c10.2 0 12-2 15.7-6 3.6-4 5.5-9.6 5.5-16.8v-30.9h-7.8v31.6Zm47.4-14.5c-2.5-1.6-5.4-2.4-8.8-2.4s-6.4.8-9 2.4c-1.9 1.2-3.3 2.8-4.3 4.7V563h-7.3v52.6h7.6v-21.2q1.2 2.55 3.6 4.2c2.3 1.7 5.3 2.5 8.8 2.5s6.4-.8 9-2.4c2.5-1.6 4.5-3.9 6-6.8 1.4-2.9 2.1-6.4 2.1-10.3s-.7-7.3-2-10.1c-1.3-2.9-3.3-5.1-5.7-6.8m-3 26.6c-2 2.4-4.6 3.5-7.9 3.5s-6.1-1.2-8-3.5c-2-2.3-3-5.5-3-9.5s1-7.3 3-9.7c2-2.3 4.6-3.5 8-3.5s6.1 1.1 8 3.4c2 2.3 2.9 5.5 2.9 9.5s-1 7.4-2.9 9.7Zm36.4-12.3-6.2-1.5c-2.1-.5-3.6-1.2-4.5-2s-1.4-1.8-1.4-2.9.6-2.5 1.8-3.3 2.9-1.2 5.2-1.2 4.3.5 5.7 1.4c1.4 1 2.2 2.3 2.5 4.1h7.1c-.3-3.5-1.9-6.3-4.5-8.2-2.7-2-6.2-2.9-10.5-2.9s-7.9 1-10.4 2.9-3.8 4.6-3.8 8 .9 5 2.8 6.8 4.6 3.2 8.4 4.2l6 1.4c2.2.5 3.7 1.2 4.4 2s1.1 1.8 1.1 3-.7 2.9-2 3.7c-1.3.9-3.2 1.3-5.7 1.3s-5.1-.6-6.7-1.7c-1.6-1.2-2.6-2.8-3-5h-7.1c.4 3.9 2 7 4.9 9.1 2.9 2.2 6.8 3.2 11.7 3.2s8.4-1 11-2.9 3.9-4.6 3.9-7.9-.9-5.2-2.7-7.2-4.5-3.4-8.1-4.3Zm43.8 4.2c0 2.3-.5 4.3-1.4 6.1-1 1.7-2.3 3.1-3.9 4.1s-3.5 1.5-5.6 1.5-4.2-.6-5.4-1.9c-1.3-1.3-1.9-3.2-1.9-5.8v-24.1h-7.6V589c0 2.4.5 4.5 1.6 6.4s2.5 3.3 4.4 4.4 4.1 1.6 6.6 1.6 6.1-.8 8.6-2.5c2.1-1.4 3.8-3.1 5-5.3v7h7.3v-37.5h-7.6v20.2Zm49-17.6c-2.3-2.3-5.5-3.4-9.5-3.4s-6.3.8-8.9 2.4q-3.3 2.1-5.1 5.4v-7.1h-7.3v37.5h7.6v-20.2c0-2.4.5-4.4 1.4-6.1 1-1.7 2.3-3.1 4-4s3.6-1.5 5.8-1.5 4.5.6 5.8 1.9 1.9 3.2 1.9 5.8v24.1h7.6v-25.9c0-3.7-1.2-6.7-3.5-9Z" style="fill:#323232"/></svg>