<?xml version="1.0" encoding="UTF-8"?>
<svg id="Layer_2" data-name="Layer 2" xmlns="http://www.w3.org/2000/svg" viewBox="0 0 1265.83 131.29">
  <defs>
    <style>
      .cls-1 {
        fill: #fff;
        stroke-width: 0px;
      }
    </style>
  </defs>
  <g id="Layer_1-2" data-name="Layer 1">
    <g>
      <g>
        <rect class="cls-1" y="53.03" width="113.52" height="20.64"/>
        <rect class="cls-1" x="139.32" y="53.03" width="113.52" height="20.64"/>
        <rect class="cls-1" x="56.76" y="108.5" width="113.52" height="20.64"/>
        <rect class="cls-1" x="82.56" y=".14" width="113.52" height="20.64"/>
      </g>
      <g>
        <polygon class="cls-1" points="414.72 22.99 414.72 2.34 335.75 2.34 335.75 128.95 357.74 128.95 357.74 73.22 396.64 73.22 396.64 52.57 357.74 52.57 357.74 22.99 414.72 22.99"/>
        <path class="cls-1" d="M465.21,109.01V2.34h-21.99v126.62h76.65v-4.46c0-8.55-6.93-15.48-15.48-15.48h-39.18Z"/>
        <path class="cls-1" d="M657,79.75c3.15-10.75,3.3-21.52.47-32-2.84-10.48-8.59-20.11-17.11-28.63-8.51-8.51-18.15-14.27-28.62-17.11-10.49-2.84-21.26-2.68-32,.47-10.72,3.14-20.9,9.47-30.24,18.81s-15.67,19.52-18.81,30.24c-3.15,10.75-3.3,21.51-.47,32,2.84,10.48,8.59,20.11,17.11,28.63s18.14,14.27,28.63,17.11c10.49,2.84,21.26,2.68,32-.47,10.72-3.14,20.9-9.47,30.24-18.81,9.34-9.34,15.67-19.52,18.81-30.24ZM621.82,93.63c-5.94,5.94-12.44,10.31-19.3,12.98-6.81,2.64-13.72,3.28-20.56,1.9-6.83-1.38-13.43-5.21-19.59-11.38-6.17-6.17-10-12.76-11.38-19.59-1.38-6.84-.75-13.76,1.9-20.56,2.67-6.86,7.03-13.36,12.98-19.3,5.94-5.94,12.44-10.31,19.3-12.98,6.8-2.64,13.72-3.28,20.56-1.9,6.84,1.38,13.43,5.21,19.59,11.38,6.17,6.17,9.99,12.76,11.38,19.59,1.38,6.84.74,13.76-1.9,20.56-2.67,6.87-7.04,13.36-12.98,19.3Z"/>
        <polygon class="cls-1" points="819.34 2.34 794.94 94.26 766.17 3.75 747.35 3.75 719.02 95.19 694.19 2.34 671.19 2.34 707.09 128.95 728.51 128.95 756.68 39.37 785.02 128.95 805.81 128.95 842.34 2.34 819.34 2.34"/>
        <path class="cls-1" d="M1005.78,20.07c-3.6-6.12-8.82-10.67-15.52-13.51-6.6-2.8-14.5-4.22-23.47-4.22h-43.85v69.01h22.52V21.66h18.74c8.53,0,14.82,1.81,18.71,5.38,3.86,3.54,5.81,9.25,5.81,16.99s-2.01,13.37-5.98,16.94c-4.01,3.6-10.19,5.43-18.37,5.43l-41.45-.1v62.66h22.52v-43.23h21.5c8.92,0,16.78-1.47,23.36-4.36,6.67-2.93,11.87-7.57,15.46-13.78,3.57-6.17,5.38-14.18,5.38-23.82s-1.81-17.61-5.39-23.69Z"/>
        <polygon class="cls-1" points="1117.43 2.34 1117.43 52.66 1059.29 52.66 1059.29 2.34 1037.3 2.34 1037.3 128.95 1059.29 128.95 1059.29 73.4 1117.43 73.4 1117.43 128.95 1139.42 128.95 1139.42 2.34 1117.43 2.34"/>
        <path class="cls-1" d="M1260.44,20.07c-3.6-6.12-8.82-10.67-15.52-13.51-6.6-2.8-14.5-4.22-23.47-4.22h-43.85v126.62h22.52v-43.23h21.5c8.92,0,16.78-1.47,23.36-4.36,6.67-2.93,11.87-7.57,15.46-13.78,3.57-6.17,5.38-14.18,5.38-23.82s-1.81-17.61-5.39-23.69ZM1243.4,44.03c0,7.67-2.01,13.37-5.98,16.94-4.01,3.6-10.19,5.43-18.37,5.43h-18.92V21.66h18.74c8.53,0,14.82,1.81,18.71,5.38,3.86,3.54,5.81,9.25,5.81,16.99Z"/>
      </g>
    </g>
  </g>
</svg>